<?xml version="1.0" encoding="utf-8"?>
<!-- Generator: Adobe Illustrator 23.0.2, SVG Export Plug-In . SVG Version: 6.00 Build 0)  -->
<svg version="1.1" id="Layer_1" xmlns="http://www.w3.org/2000/svg" xmlns:xlink="http://www.w3.org/1999/xlink" x="0px" y="0px"
	 width="428.8px" height="102.8px" viewBox="0 0 428.8 102.8" style="enable-background:new 0 0 428.8 102.8;" xml:space="preserve"
	>
<style type="text/css">
	.st0{fill:#415364;}
	.st1{fill:#ED1C24;}
	.st2{fill:#458AC9;}
	.st3{fill:#1A1F71;}
</style>
<g>
	<g>
		<path class="st0" d="M191.9,34.7c-9.4,0-17.1,7.7-17.1,17.1s7.7,17.1,17.1,17.1S209,61.1,209,51.7c0-1.2-0.1-2.3-0.4-3.4l0,0
			c-1.6-7.6-8.1-13.2-15.8-13.6C192.5,34.7,192.2,34.7,191.9,34.7z M209,36.6v-6.2h5.7v42.8H209v-6.3l0,0
			c-4.2,4.7-10.3,7.7-17.1,7.7c-12.6,0-22.8-10.2-22.8-22.8c0-12.6,10.2-22.8,22.8-22.8c0.4,0,0.8,0,1.2,0
			C199.4,29.3,205,32.1,209,36.6L209,36.6z"/>
		<path class="st0" d="M159.1,46.6c-2.2-7-8.8-12-16.3-12c-9.4,0-17.1,7.7-17.1,17.1s7.7,17.1,17.1,17.1c7.6,0,14.1-5,16.3-12h5.9
			c-2.3,10.1-11.4,17.7-22.2,17.7c-12.6,0-22.8-10.2-22.8-22.8c0-12.6,10.2-22.8,22.8-22.8c10.6,0,19.9,7.4,22.2,17.7L159.1,46.6"/>
		<g>
			<path class="st0" d="M267.2,34.7c-9.4,0-17.1,7.7-17.1,17.1s7.7,17.1,17.1,17.1c9.4,0,17.1-7.7,17.1-17.1c0-1.2-0.1-2.3-0.3-3.4
				l0,0c-1.6-7.6-8.1-13.2-15.8-13.6C267.8,34.7,267.5,34.7,267.2,34.7z M284.2,36.6V14.7h5.7v58.5h-5.7v-6.3l0,0
				c-4.2,4.7-10.3,7.7-17.1,7.7c-12.6,0-22.8-10.2-22.8-22.8c0-12.6,10.2-22.8,22.8-22.8c0.4,0,0.8,0,1.2,0
				C274.6,29.3,280.3,32.1,284.2,36.6L284.2,36.6z"/>
			<path class="st0" d="M389.7,34.7c-9.4,0-17.1,7.7-17.1,17.1s7.7,17.1,17.1,17.1s17.1-7.7,17.1-17.1c0-1.2-0.1-2.3-0.3-3.4l0,0
				c-1.6-7.6-8.1-13.2-15.8-13.6C390.3,34.7,390,34.7,389.7,34.7z M406.8,36.6v-6.2h5.7v42.8h-5.7v-6.3l0,0
				c-4.2,4.7-10.3,7.7-17.1,7.7c-12.6,0-22.8-10.2-22.8-22.8c0-12.6,10.2-22.8,22.8-22.8c0.4,0,0.8,0,1.2,0
				C397.2,29.3,402.8,32.1,406.8,36.6L406.8,36.6z"/>
			<path class="st0" d="M247.7,34.7c-9.2,0-16.7,7.5-16.7,16.7v21.7h-5.7V30.3h5.7v6.1c4.1-4.6,10.1-7.5,16.7-7.5V34.7z"/>
			<rect x="300.7" y="30.2" class="st0" width="5.7" height="42.9"/>
			<rect x="423" y="14.7" class="st0" width="5.7" height="58.5"/>
			<path class="st0" d="M322.8,73.1h-5.7V30.2h5.7v6.1c4.1-4.6,10.1-7.5,16.7-7.5c12.4,0,22.4,10.1,22.4,22.4v21.9h-5.7V51.3
				c0-9.2-7.5-16.7-16.7-16.7c-9.2,0-16.7,7.5-16.7,16.7V73.1z"/>
		</g>
	</g>
	<g>
		<path class="st1" d="M51.4,102.8C23.1,102.8,0,79.7,0,51.4c0-5.9,4.8-10.6,10.6-10.6s10.6,4.8,10.6,10.6
			c0,16.6,13.5,30.2,30.1,30.2c11,0,21.1-6,26.4-15.6c2.8-5.1,9.3-7,14.4-4.2s7,9.3,4.2,14.4C87.4,92.6,70.1,102.8,51.4,102.8z"/>
		<g>
			<path class="st2" d="M10.6,62C4.8,62,0,57.3,0,51.4C0,23.1,23.1,0,51.4,0c18.7,0,36,10.2,45,26.6c2.8,5.1,1,11.6-4.2,14.4
				c-5.1,2.8-11.6,1-14.4-4.2c-5.3-9.6-15.4-15.6-26.4-15.6c-16.6,0-30.1,13.5-30.1,30.1C21.3,57.3,16.5,62,10.6,62z"/>
		</g>
	</g>
	<circle class="st3" cx="10.6" cy="51.4" r="10.6"/>
</g>
</svg>
