<?xml version="1.0" encoding="utf-8"?>
<!-- Generator: Adobe Illustrator 17.0.0, SVG Export Plug-In . SVG Version: 6.00 Build 0)  -->
<!DOCTYPE svg PUBLIC "-//W3C//DTD SVG 1.1//EN" "http://www.w3.org/Graphics/SVG/1.1/DTD/svg11.dtd">
<svg version="1.1" id="Layer_1" xmlns="http://www.w3.org/2000/svg" xmlns:xlink="http://www.w3.org/1999/xlink" x="0px" y="0px"
	 width="642.894px" height="210.974px" viewBox="0 0 642.894 210.974" enable-background="new 0 0 642.894 210.974"
	 xml:space="preserve">
<g>
	<g>
		<path fill-rule="evenodd" clip-rule="evenodd" fill="#5B2757" d="M441.153,73.845c-4.519-0.098-9.119-1.471-15.179-0.967
			c-1.598,0.131-6.234,0.408-7.018,1.225c-0.828,0.879-1.29,2.9-1.456,4.182c-0.273,1.945-0.556,3.862-0.747,5.224
			c-2.018,14.109-1.748,31.046,6.026,43.474c1.177,1.87,2.459,3.546,4.308,4.827c1.62,1.136,4.923,1.998,5.137,4.285
			c0.442,4.644-8.049,2.265-10.214,1.581c-5.446-1.702-9.206-6.408-11.95-11.085c-4.334-7.385-5.429-16.389-5.815-24.769
			c-0.096-2.27-0.203-26.266,1.392-26.342c-8.602,0.447-19.604,3.749-28.741,1.737c-3.973-0.878-6.688-3.567-8.204-6.868
			c-0.533-1.143-1.438-7.197,0.448-7.512c1.105-0.184,1.443,1.107,2.374,1.443c1.978,0.711,5.761,0.693,8.512,0.463
			c4.177-0.359,7.81-0.711,12.14-0.951c5.688-0.309,10.32-2.182,15.574-1.781c2.481-8.027,4.334-16.227,6.62-24.307
			c1.896-6.689,4.365-13.912,6.856-20.539c1.711-4.557,3.538-14.049,8.898-16.041c2.14-0.791,5.357-1.588,7.045-0.799
			c1.541,0.723,3.832,3.076,3.84,5.295c0.004,4.236-2.585,8.879-4.292,12.701c-1.956,4.367-4.137,8.649-5.599,13.215
			c-1.507,4.736-3.062,8.822-4.629,13.541c-1.421,4.275-3.557,9.158-4.391,13.592c-0.724,3.879,1.035,4.17,4.453,4.574
			c4.543,0.547,9.555,2.494,12.211,4.92C440.221,69.507,441.483,71.278,441.153,73.845z"/>
		<path fill-rule="evenodd" clip-rule="evenodd" fill="#5B2757" d="M350.986,103.64c1.344,1.228-0.087,5.238-0.738,6.424
			c-1.334,2.423-3.449,4.558-5.633,6.226c-4.025,3.074-10.265,4.373-14.731,1.38c-2.491-1.669-4.202-5.227-4.54-8.171
			c-0.123-1.071,0.283-2.322-0.699-3.153c-0.932-0.287-1.402,0.508-1.844,1.065c-3.209,4.048-7.799,8.219-13.499,9.986
			c-2.835,0.879-6.903,0.94-9.773-0.078c-1.452-0.515-2.763-2.183-3.714-3.399c-0.891-1.138-1.477-3.104-3.242-3.21
			c-2.974-0.18-5.782,5.307-7.783,6.915c-1.987,1.598-3.455,3.723-5.371,5.392c-2.239,1.947-4.42,3.062-7.018,4.426
			c-3.424,1.799-7.709,2.918-11.608,2.473c-4.56-0.514-8.155-3.572-10.72-7.118c-5.614-7.762-5.725-17.385-4.938-26.484
			c0.864-9.996,2.301-19.802,4.551-29.584c1.384-6.02,2.975-11.992,4.309-18.021c1.137-5.129,2.58-10.01,3.691-15.004
			c0.727-3.262,3.496-10.209,5.936-11.791c1.408-0.912,4.234-1.078,5.923-1.293c4.479-0.555,7.278,0.799,7.096,5.93
			c-0.046,1.268-0.65,2.574-0.981,3.992c-0.727,3.08-2.397,5.945-3.205,9.166c-0.797,3.16-1.947,6.34-2.926,9.422
			c-2.207,6.979-4.252,14.34-5.863,21.766c-2.267,10.455-4.065,20.846-4.752,31.535c-0.264,4.103,0.83,11.136,3.455,14.482
			c8.645,11.015,21.29-10.337,24.094-16.979c1.811-4.292,2.862-9.373,5.205-13.375c5.582-9.537,14.607-17.057,26.002-17.647
			c3.817-0.197,11.438-0.668,11.445,3.166c0.005,2.986-6.979,2.904-9.926,3.416c-2.283,0.402-5.588,2.201-7.22,3.794
			c-2.218,2.162-4.934,4.121-6.233,6.85c-1.681,3.529-5.533,11.352-3.271,17.378c0.719,1.92,3.467,4.073,5.777,3.835
			c2.098-0.214,3.435-1.412,4.731-2.14c7.276-4.114,11.039-10.759,14.612-18.442c0.37-0.795,0.85-1.779,1.191-2.767
			c0.248-0.7,0.566-1.896,1.005-2.137c0.518-0.277,1.253-0.335,1.921-0.224c3.17,0.548,6.494,0.627,6.951,3.892
			c0.518,3.689-1.686,6.852-2.807,10.22c-1.154,3.422-3.457,10.994-0.549,14.31c2.936,3.371,6.928,0.543,9.165-1.623
			c1.214-1.183,2.128-2.415,2.939-3.877c0.596-1.078,1.168-2.185,2.596-1.548C350.4,103.192,350.727,103.403,350.986,103.64z"/>
		<path fill-rule="evenodd" clip-rule="evenodd" fill="#5B2757" d="M529.647,127.083c9.854,0.089,12.957-7.314,16.244-14.684
			c2.57-5.774,6.069-26.695-5.388-25.535c-4.76,0.483-8.16,6.173-10.463,9.822c-2.847,4.508-4.723,9.431-5.474,14.719
			c-0.65,4.578,0.589,12.243-5.503,11.165c-3.164-0.558-3.399-5.335-3.649-9.003c-0.428-6.377,0.387-14.351-0.438-21.257
			c-0.087-0.724-0.214-2.227-0.178-3.62c0.021-0.778,0.234-2.893-0.436-3.083c-0.915-0.247-2.548,3.104-2.892,3.604
			c-3.071,4.445-5.794,8.047-9.438,12.58c-2.18,2.727-5.416,5.338-8.855,6.915c-2.829,1.307-7.745,2.905-11.675,2.226
			c-1.63-0.292-4.186-1.872-5.304-2.971c-1.404-1.37-2.09-5.511-4.117-5.722c-1.428-0.159-2.888,1.393-3.822,2.028
			c-3.117,2.086-6.844,4.425-12.637,3.827c-2.73-0.274-5.527-2.437-6.691-4.168c-2.901-4.339-3.346-10.207-2.025-16.191
			c1.916-8.646,9.092-16.54,18.408-18.35c2.083-0.397,8.256-1.588,9.661-0.051c1.526,1.668-0.886,4.67-1.959,4.986
			c-1.311,0.395-2.667,0.356-3.954,0.801c-6.668,2.347-12.441,8.78-12.559,17.332c-0.033,2.629,1.402,5.819,4.125,6.082
			c4.368,0.422,9.166-3.453,10.864-5.73c2.216-2.961,3.729-6.707,4.516-10.96c0.172-0.985-0.13-1.913,0.562-2.481
			c1.329-1.109,4.939-0.168,5.78,0.211c2.813,1.265,3.866,5.698,2.676,9.554c-0.379,1.233-1.291,2.361-1.453,3.563
			c-0.38,2.964,0.947,5.296,2.679,5.854c4.82,1.554,9.784-1.635,12.449-3.915c3.002-2.572,5.266-6.006,7.359-9.088
			c2.018-2.965,4.584-6.852,5.872-10.461c1.416-3.965,3.333-7.887,4.209-12.014c0.965-4.531,2.026-9.762,3-13.668
			c1.435-5.666,3.142-11.269,4.734-16.894c1.907-6.736,4.647-16.441,13.125-16.449c8.717,0.014,3.208,10.598,1.441,14.533
			c-3.448,7.701-6.263,15.838-8.783,24.301c-1.896,6.367-2.304,12.842-3.627,19.305c-0.429,2.097-3.12,13.325,1.194,13.584
			c1.242,0.069,3.384-2.196,4.171-2.837c4.02-3.238,10.274-8.77,17.617-6.678c4.043,1.148,8.288,5.126,9.601,8.863
			c1.962,5.582,1.046,12.009,0.619,17.63c-0.253,3.404-1.607,5.971-2.659,9.157c-1.461,4.43-4.502,8.959-7.9,12.457
			c-3.439,3.528-12.374,8.909-18.376,4.932C529.07,130.499,528.084,128.375,529.647,127.083z"/>
		<path fill-rule="evenodd" clip-rule="evenodd" fill="#5B2757" d="M585.813,57.372c-0.018,0.074-0.038,0.145-0.057,0.221
			c-1.761,6.98-3.501,13.738-3.833,20.943c-0.252,5.684-0.298,13.001,3.456,17.758c2.946,3.734,7.733,6.605,14.683,6.442
			c1.647-0.041,3.961-0.034,5.123-0.913c1.068-0.812,1.484-3.639,1.951-4.991c2.824-8.127,8.619-16.565,16.371-20.425
			c3.924-1.943,9.938-1.414,14.245-0.509c5.82,1.966,6.154,9.338,3.695,14.563c-3.271,6.978-11.561,12.329-19.471,15.37
			c-0.896,0.354-3.122,0.892-3.482,1.5c-0.979,1.688,0.648,5.293,0.962,6.158c1.626,4.294,5.016,8.383,9.363,9.925
			c1.688,0.598,6.121,1.114,8.403,0.419c1.386-0.418,2.052-1.481,3.212-1.488c0.973-0.003,2.209,0.703,2.297,1.533
			c0.155,1.392-2.266,2.833-3.163,3.427c-2.543,1.707-6.414,2.69-10.594,2.461c-5.634-0.309-11.27-2.106-15.742-5.605
			c-2.201-1.723-4.147-3.84-5.571-6.248c-0.749-1.264-1.331-2.61-1.844-3.984c-0.315-0.841-0.676-3.525-1.339-4.055
			c-0.77-0.621-2.964,0.204-3.867,0.267c-3.907,0.273-8.677-1.241-11.977-2.274c-5.61-1.778-11.326-5.711-14.42-10.252
			c-9.201-13.504-4.39-36.752,0.566-50.407c1.674-4.635,3.705-10.342,6.775-13.932c2.966-3.471,13.765-6.701,12.85,1.195
			c-0.441,3.744-3.191,7.453-4.612,10.924C588.196,49.29,586.847,53.292,585.813,57.372z M633.598,86.673
			c0.632-1.317,1.525-3.623,1.312-5.408c-0.262-2.192-2.682-2.645-4.458-1.576c-6.2,3.706-10.068,11.832-11.252,19.589
			C624.869,97.027,630.974,92.208,633.598,86.673z"/>
		<path fill-rule="evenodd" clip-rule="evenodd" fill="#5B2757" d="M199.408,100.037c2.437-0.676,5.48-0.961,6.007,1.888
			c0.589,3.257-0.994,6.533-1.577,9.308c-1.439,6.863-7.59,14.014-14.002,16.932c-5.511,2.51-12.665,1.98-15.552-4.058
			c-1.971-4.125-0.6-10.38,0.408-14.655c0.668-2.846,1.122-5.127,1.733-7.477c0.563-2.185,1.737-7.316,1.584-9.55
			c-0.03-0.415-0.529-2.954-1.784-2.964c-0.541,0.005-2.355,2.875-2.797,3.595c-2.032,3.325-3.294,6.135-5.688,9.281
			c-3.7,4.875-8.274,10.487-13.88,13.341c-6.34,3.231-15.846,4.286-21.205,0.06c-0.575-0.452-1.558-1.654-1.96-2.602
			c-0.512-1.209-0.304-3.256-1.615-3.312c-1.309-0.056-2.41,1.942-3.177,2.719c-5.371,5.435-14.46,10.338-22.32,8.473
			c-3.655-0.867-5.562-3.035-7.233-6.271c-1.275-2.471-1.453-6.847-1.589-9.586c-0.27-5.515,1.015-11.139,2.271-16.488
			c1.07-4.56,2.744-9.597,6.453-12.822c1.769-1.539,4.564-2.256,6.847-2.264c4.026-0.014,4.032,3.08,3.299,6.417
			c-0.938,4.306-2.565,9.315-3.527,14.473c-0.867,4.677-2.634,9.588,0.257,13.941c1.216,1.821,3.117,3.285,6.37,1.874
			c1.649-0.719,4.196-3.298,5.653-4.903c3.132-3.452,6.052-7.132,8.396-11.171c2.403-4.138,3.231-8.978,5.611-13.048
			c2.683-4.564,13.241-2.817,11.187,3.148c-0.798,2.326-2.561,5.283-3.574,8.733c-0.996,3.4-2.579,6.615-2.007,10.023
			c0.857,5.075,3.981,6.872,9.506,4.986c3.022-1.027,6.069-4.048,8.06-6.285c2.474-2.771,4.507-5.883,6.414-9.049
			c1.368-2.26,3.892-5.46,3.496-8.24c-0.366-2.532-3.074-5.005-3.581-7.762c-0.481-2.642,0.01-5.3,1.05-7.755
			c2.085-4.897,6.659-8.74,12.251-9.139c5.002-0.354,5.956,6.723,4.967,11.268c-0.51,2.369-3.291,5.433-2.685,7.906
			c0.605,2.453,3.979,2.46,5.49,4.15c6.05,6.763,1.891,16.835-0.368,24.25c-0.683,2.237-1.082,3.734-1.835,5.944
			c-0.695,2.04-2.022,4.814-1.076,7.009c1.936,4.496,6.187,0.208,8.15-1.776C196.234,114.107,197.658,106.785,199.408,100.037z
			 M175.035,67.165c-0.718,1.762-1.213,8.518,1.189,7.738c0.825-0.264,1.749-4.531,1.833-6.131c0.097-1.814-0.181-3.746-1.172-3.682
			C176.059,65.147,175.279,66.575,175.035,67.165z"/>
		<path fill-rule="evenodd" clip-rule="evenodd" fill="#5B2757" d="M118.096,40.733c-1.109-1.449-1.311-2.715-1.35-3.96
			c-0.039-1.244,0.085-2.467-0.373-3.831c-0.374-1.114-0.999-2.047-1.736-2.869c-0.737-0.821-1.587-1.533-2.41-2.204
			c-3.214-2.619-7.147-4.466-11.523-5.851c-4.375-1.384-9.192-2.307-14.172-3.079c-4.849-0.752-9.866-1.179-14.879-1.22
			c-5.012-0.041-10.018,0.305-14.842,1.099c-9.334,1.535-18.625,4.52-26.512,8.7c-7.887,4.18-14.37,9.556-18.087,15.876
			C10.228,46.768,9.031,51.254,9,55.828c-0.032,4.574,1.103,9.235,3.781,12.956c3.909,5.43,9.706,9.888,16.267,13.849
			c6.561,3.962,13.886,7.426,20.851,10.864c6.129,3.024,13.462,6.194,19.933,10.358c6.472,4.164,12.244,9.159,14.928,16.16
			c0.976,2.544,1.53,5.419,1.597,8.004c0.067,2.584-0.516,5.041-1.285,7.072c-1.514,3.996-5.353,6.871-10.119,8.626
			c-4.768,1.755-10.464,2.514-15.695,2.439c-1.64-0.023-3.248-0.138-4.951-0.223c-1.702-0.084-3.499-0.263-5.516-0.662
			c-3.213-0.637-5.741-1.896-7.674-3.834c-1.933-1.936-3.269-4.55-4.097-7.895c-0.482-1.952-0.346-4.38,0.135-6.274
			c0.481-1.896,1.118-3.119,2.19-3.08c1.771,0.064,2.893,1.693,4.056,2.804c1.527,1.457,3.106,2.782,4.905,3.872
			c1.061,0.642,2.896,1.865,4.271,2.503c3.224,1.495,5.608,2.503,9.092,3.329c1.026,0.244,2.067,0.414,3.122,0.474
			c1.726,0.097,3.625,0.228,5.259-0.449c2.711-1.122,3.189-3.45,2.705-5.876c-0.484-2.426-1.933-4.951-3.075-6.468
			c-2.799-3.717-6.559-6.389-10.638-8.642c-4.079-2.252-8.475-4.085-12.544-6.123c-9.661-4.839-20.267-10.548-28.908-18.25
			C8.946,83.662,2.267,73.968,0.46,61.155c-1.265-8.962,0.165-17.042,3.241-24.032c3.076-6.99,7.8-12.891,13.122-17.491
			C22.583,14.652,29.234,10.5,36.8,7.443c7.566-3.056,16.046-5.016,25.463-5.61C72.767,1.17,83.386,2.239,92.757,4.769
			c9.371,2.529,17.494,6.518,23.01,11.692c2.036,1.91,4.328,4.721,5.925,7.968c1.597,3.248,2.499,6.933,1.757,10.589
			c-0.243,1.193-0.726,2.473-1.575,3.528C121.023,39.602,119.806,40.434,118.096,40.733z"/>
	</g>
	<g>
		<path fill="#5B2757" d="M90.27,197.145l-6.033-0.009l-0.027,12.827l-4.956-0.009l0.029-12.828l-6.029-0.009l0.008-4.111
			l17.015,0.029L90.27,197.145z"/>
		<path fill="#5B2757" d="M115.984,210.009l-4.955-0.006l0.015-6.603l-7.456-0.01l-0.015,6.601l-4.952-0.008l0.038-16.936
			l4.952,0.006l-0.012,6.225l7.456,0.011l0.014-6.224l4.955,0.007L115.984,210.009z"/>
		<path fill="#5B2757" d="M138.003,210.044l-12.397-0.02l0.038-16.937l12.193,0.019l-0.008,3.417l-7.243-0.013l-0.004,3.099
			l6.91,0.012l-0.006,3.416l-6.914-0.01l-0.008,3.588l7.445,0.013L138.003,210.044z"/>
		<path fill="#5B2757" d="M177.547,210.104l-5.078-0.008l-1.336-3.42l-7.147-0.011l-1.372,3.415l-5.083-0.007l7.317-16.926
			l5.488,0.007L177.547,210.104z M169.999,203.724l-2.394-6.202l-2.449,6.192L169.999,203.724z"/>
		<path fill="#5B2757" d="M201.119,210.14l-5.317-0.009l-1.28-3.004c-0.475-1.1-0.899-1.902-1.277-2.411
			c-0.375-0.51-0.748-0.834-1.104-0.977c-0.36-0.143-0.825-0.216-1.39-0.217l-0.562,0.001l-0.012,6.602l-4.955-0.01l0.038-16.938
			l8.42,0.014c1.359,0.001,2.468,0.29,3.338,0.859c0.869,0.574,1.491,1.267,1.874,2.082c0.38,0.816,0.571,1.589,0.567,2.323
			c-0.001,0.857-0.163,1.582-0.479,2.171c-0.324,0.59-0.658,1.02-1.018,1.289c-0.356,0.27-0.754,0.523-1.195,0.767
			c0.527,0.32,0.963,0.697,1.305,1.133c0.34,0.439,0.809,1.319,1.398,2.645L201.119,210.14z M194.424,198.535
			c0-0.781-0.245-1.329-0.744-1.638c-0.498-0.312-1.307-0.468-2.429-0.469l-1.042-0.001l-0.012,4.083l1.066,0.001
			c1.21,0.004,2.04-0.134,2.486-0.405C194.196,199.833,194.424,199.308,194.424,198.535z"/>
		<path fill="#5B2757" d="M223.635,197.346l-6.031-0.011l-0.029,12.83l-4.953-0.01l0.03-12.826l-6.035-0.01l0.009-4.11l17.021,0.026
			L223.635,197.346z"/>
		<path fill="#5B2757" d="M261.147,210.231l-5.596-0.009l-1.062-1.121c-0.681,0.475-1.464,0.818-2.35,1.026
			c-0.89,0.212-1.771,0.319-2.65,0.316c-1.869-0.001-3.296-0.434-4.286-1.291c-0.986-0.856-1.476-1.881-1.472-3.071
			c0.001-0.853,0.25-1.613,0.753-2.271c0.497-0.659,1.466-1.495,2.903-2.506c-0.415-0.448-0.752-0.873-1.021-1.272
			c-0.27-0.399-0.466-0.797-0.598-1.192c-0.129-0.396-0.192-0.802-0.191-1.22c-0.001-0.808,0.225-1.56,0.668-2.266
			c0.445-0.704,1.097-1.266,1.953-1.684c0.857-0.419,1.863-0.624,3.007-0.623c0.851,0,1.605,0.136,2.271,0.406
			c0.666,0.27,1.203,0.615,1.624,1.037c0.421,0.419,0.733,0.872,0.942,1.356c0.211,0.483,0.312,0.949,0.314,1.388
			c-0.002,0.864-0.292,1.667-0.874,2.408c-0.579,0.741-1.355,1.364-2.34,1.867l2.22,2.436c0.689-0.645,1.302-1.454,1.838-2.43
			l3.967,0.006c-1.017,1.993-2.207,3.619-3.565,4.879L261.147,210.231z M252.325,206.708l-2.875-3.128
			c-1.056,0.691-1.583,1.372-1.586,2.047c0.001,0.397,0.184,0.805,0.554,1.217c0.371,0.411,0.914,0.618,1.635,0.618
			C250.91,207.464,251.666,207.212,252.325,206.708z M253.033,197.333c-0.001-0.228-0.055-0.457-0.168-0.686
			c-0.117-0.227-0.306-0.417-0.568-0.566c-0.266-0.15-0.584-0.227-0.963-0.228c-0.538-0.001-0.947,0.143-1.214,0.431
			c-0.27,0.289-0.404,0.596-0.405,0.921c-0.003,0.222,0.069,0.447,0.211,0.685c0.141,0.236,0.329,0.489,0.567,0.757
			c0.243,0.273,0.482,0.532,0.717,0.783C252.424,198.889,253.032,198.188,253.033,197.333z"/>
		<path fill="#5B2757" d="M294.344,205.369c0,1.058-0.267,1.975-0.792,2.748c-0.528,0.772-1.264,1.362-2.208,1.773
			c-0.943,0.409-2.022,0.613-3.241,0.611c-0.341,0-0.756-0.021-1.256-0.069c-0.491-0.043-1.149-0.169-1.967-0.373
			c-0.818-0.205-1.672-0.508-2.557-0.908l0.009-4.149c0.829,0.531,1.647,0.972,2.453,1.321c0.803,0.352,1.662,0.527,2.585,0.529
			c0.846,0.002,1.395-0.143,1.645-0.432c0.251-0.289,0.375-0.559,0.378-0.812c0.003-0.46-0.211-0.844-0.643-1.159
			c-0.429-0.314-1.049-0.643-1.867-0.976c-0.903-0.394-1.694-0.821-2.372-1.283c-0.681-0.463-1.238-1.041-1.665-1.734
			c-0.432-0.693-0.644-1.514-0.641-2.458c0.001-0.915,0.221-1.739,0.658-2.477c0.438-0.736,1.101-1.324,1.998-1.765
			c0.897-0.439,1.989-0.657,3.281-0.655c0.916,0.001,1.766,0.094,2.544,0.278c0.778,0.183,1.42,0.392,1.932,0.62
			c0.503,0.229,0.852,0.406,1.041,0.535l-0.009,3.966c-0.674-0.496-1.42-0.941-2.247-1.333c-0.828-0.393-1.711-0.59-2.652-0.592
			c-0.619,0-1.069,0.12-1.344,0.366c-0.279,0.242-0.417,0.545-0.419,0.904c-0.001,0.334,0.139,0.626,0.418,0.872
			c0.275,0.246,0.772,0.545,1.487,0.896c1.261,0.615,2.273,1.169,3.031,1.66c0.759,0.49,1.351,1.058,1.777,1.699
			C294.135,203.615,294.347,204.413,294.344,205.369z"/>
		<path fill="#5B2757" d="M320.812,201.844c-0.001,1.582-0.362,3.038-1.069,4.366c-0.713,1.327-1.769,2.38-3.17,3.161
			c-1.4,0.78-3.107,1.17-5.117,1.166c-2.028-0.004-3.754-0.414-5.161-1.229c-1.404-0.82-2.444-1.894-3.125-3.223
			c-0.682-1.329-1.024-2.752-1.02-4.27c0.006-1.522,0.35-2.948,1.031-4.273c0.681-1.321,1.732-2.39,3.14-3.198
			c1.418-0.808,3.144-1.211,5.175-1.209c1.517,0.003,2.871,0.238,4.062,0.704c1.189,0.467,2.164,1.097,2.931,1.893
			c0.767,0.797,1.344,1.72,1.736,2.78C320.619,199.568,320.814,200.677,320.812,201.844z M315.778,201.836
			c-0.002-0.637-0.092-1.219-0.273-1.747c-0.18-0.525-0.455-0.984-0.822-1.375c-0.368-0.387-0.818-0.69-1.35-0.907
			c-0.53-0.219-1.148-0.327-1.842-0.329c-1.336-0.002-2.389,0.399-3.15,1.196c-0.765,0.802-1.151,1.851-1.151,3.15
			c-0.004,1.3,0.379,2.352,1.144,3.159c0.762,0.806,1.81,1.211,3.135,1.212c0.913,0.001,1.689-0.184,2.335-0.554
			c0.643-0.372,1.133-0.888,1.467-1.543C315.606,203.442,315.775,202.688,315.778,201.836z"/>
		<path fill="#5B2757" d="M346.498,202.776c-0.004,1.452-0.271,2.69-0.796,3.71c-0.531,1.023-1.226,1.831-2.094,2.425
			c-0.87,0.594-1.799,1.02-2.802,1.28c-1.003,0.258-2,0.39-2.995,0.388c-1.393-0.003-2.748-0.25-4.061-0.74
			c-1.314-0.491-2.414-1.327-3.299-2.502c-0.884-1.173-1.322-2.703-1.316-4.586l0.02-9.355l4.955,0.008l-0.022,8.032
			c-0.001,1.119,0.156,2.043,0.463,2.773c0.311,0.73,0.746,1.265,1.306,1.604c0.552,0.337,1.212,0.51,1.968,0.51
			c0.729,0,1.375-0.165,1.934-0.498c0.562-0.332,1.001-0.862,1.316-1.588c0.312-0.727,0.468-1.648,0.473-2.763l0.02-8.061
			l4.951,0.008L346.498,202.776z"/>
		<path fill="#5B2757" d="M368.372,210.392l-12.492-0.02l0.037-16.938l4.952,0.006l-0.029,12.888l7.539,0.011L368.372,210.392z"/>
		<path fill="#5B2757" d="M407.037,201.974c-0.005,1.583-0.363,3.038-1.074,4.364c-0.71,1.329-1.764,2.383-3.168,3.165
			c-1.402,0.779-3.105,1.166-5.114,1.165c-2.034-0.003-3.751-0.414-5.157-1.23c-1.404-0.819-2.451-1.893-3.133-3.222
			c-0.678-1.329-1.018-2.753-1.014-4.27c0.004-1.523,0.346-2.95,1.028-4.271c0.685-1.325,1.731-2.393,3.147-3.2
			c1.412-0.809,3.133-1.213,5.169-1.208c1.517,0.001,2.87,0.235,4.059,0.703c1.191,0.465,2.166,1.097,2.935,1.895
			c0.762,0.793,1.342,1.72,1.732,2.776C406.842,199.698,407.039,200.81,407.037,201.974z M402.002,201.968
			c-0.003-0.638-0.092-1.221-0.275-1.748c-0.182-0.526-0.453-0.983-0.82-1.374c-0.375-0.389-0.819-0.689-1.352-0.907
			c-0.533-0.218-1.145-0.329-1.846-0.328c-1.332-0.002-2.385,0.396-3.143,1.193c-0.766,0.803-1.15,1.851-1.151,3.15
			c-0.004,1.299,0.376,2.353,1.138,3.158c0.768,0.808,1.812,1.21,3.137,1.213c0.912-0.001,1.692-0.183,2.336-0.555
			c0.646-0.371,1.135-0.885,1.467-1.543C401.83,203.572,401.996,202.818,402.002,201.968z"/>
		<path fill="#5B2757" d="M427.388,203.621l-6.821-0.012l-0.021,6.862l-4.955-0.009l0.042-16.936l11.777,0.018l-0.006,3.418
			l-6.825-0.013l-0.008,3.243l6.827,0.011L427.388,203.621z"/>
		<path fill="#5B2757" d="M463.6,209.268c-0.688,0.368-1.382,0.662-2.091,0.882c-0.717,0.223-1.436,0.378-2.165,0.471
			c-0.721,0.093-1.471,0.14-2.243,0.138c-1.436-0.003-2.718-0.208-3.852-0.616c-1.136-0.408-2.115-1.015-2.943-1.808
			c-0.831-0.797-1.452-1.729-1.863-2.792c-0.411-1.066-0.616-2.233-0.608-3.506c0-1.459,0.245-2.737,0.739-3.831
			c0.491-1.094,1.177-2.006,2.055-2.73c0.884-0.725,1.888-1.258,3.015-1.604c1.126-0.346,2.313-0.517,3.568-0.514
			c1.864,0.002,3.983,0.434,6.345,1.293l-0.011,4.502c-0.809-0.522-1.617-0.956-2.409-1.303c-0.799-0.35-1.733-0.523-2.81-0.523
			c-0.955-0.002-1.852,0.19-2.682,0.581c-0.836,0.39-1.506,0.944-2.012,1.668c-0.51,0.723-0.765,1.566-0.766,2.535
			c-0.004,0.854,0.216,1.639,0.661,2.351c0.44,0.714,1.054,1.279,1.841,1.699c0.789,0.421,1.674,0.632,2.665,0.632
			c0.798,0,1.555-0.098,2.263-0.296c0.717-0.197,1.316-0.419,1.807-0.662c0.485-0.244,0.984-0.533,1.503-0.867L463.6,209.268z"/>
		<path fill="#5B2757" d="M489.689,202.101c-0.001,1.582-0.363,3.036-1.072,4.363c-0.711,1.327-1.77,2.381-3.169,3.162
			c-1.402,0.779-3.109,1.168-5.118,1.166c-2.026-0.001-3.747-0.414-5.155-1.231c-1.407-0.814-2.448-1.889-3.128-3.218
			c-0.688-1.331-1.025-2.755-1.018-4.272c0.004-1.523,0.347-2.947,1.029-4.269c0.685-1.327,1.732-2.393,3.144-3.2
			c1.417-0.81,3.138-1.215,5.169-1.211c1.517,0.003,2.871,0.237,4.06,0.702c1.19,0.467,2.17,1.1,2.932,1.896
			c0.768,0.796,1.345,1.722,1.737,2.777C489.498,199.823,489.691,200.935,489.689,202.101z M484.65,202.093
			c0.003-0.637-0.086-1.221-0.27-1.748c-0.182-0.528-0.458-0.983-0.823-1.373c-0.368-0.389-0.816-0.691-1.35-0.91
			c-0.532-0.217-1.149-0.327-1.844-0.326c-1.336-0.004-2.384,0.396-3.149,1.196c-0.764,0.799-1.142,1.847-1.148,3.146
			c-0.001,1.3,0.378,2.355,1.141,3.158c0.768,0.809,1.811,1.211,3.137,1.213c0.911,0.001,1.69-0.184,2.334-0.555
			c0.643-0.368,1.133-0.885,1.463-1.541C484.478,203.695,484.649,202.946,484.65,202.093z"/>
		<path fill="#5B2757" d="M515.852,202.14c-0.002,1.582-0.359,3.038-1.072,4.363c-0.708,1.33-1.766,2.382-3.167,3.164
			c-1.404,0.78-3.104,1.168-5.112,1.165c-2.035-0.003-3.756-0.413-5.162-1.229c-1.404-0.82-2.45-1.893-3.132-3.223
			c-0.68-1.329-1.015-2.753-1.01-4.269c-0.001-1.525,0.342-2.949,1.024-4.273c0.685-1.324,1.732-2.392,3.145-3.199
			c1.412-0.81,3.138-1.211,5.168-1.207c1.52-0.001,2.879,0.237,4.061,0.703c1.189,0.466,2.172,1.095,2.93,1.892
			c0.768,0.796,1.348,1.723,1.742,2.78C515.66,199.863,515.854,200.974,515.852,202.14z M510.814,202.13
			c0-0.637-0.089-1.218-0.27-1.744c-0.18-0.527-0.452-0.985-0.826-1.377c-0.363-0.386-0.816-0.688-1.348-0.907
			c-0.53-0.217-1.149-0.326-1.845-0.326c-1.332-0.004-2.38,0.396-3.145,1.194c-0.766,0.8-1.146,1.85-1.15,3.149
			c0,1.299,0.38,2.352,1.138,3.159c0.768,0.807,1.814,1.209,3.139,1.21c0.913,0.003,1.693-0.182,2.333-0.552
			c0.646-0.371,1.135-0.886,1.471-1.544C510.642,203.736,510.811,202.981,510.814,202.13z"/>
		<path fill="#5B2757" d="M541.708,210.654l-6.053-0.008l-6.276-7.943l-0.022,7.934l-4.95-0.01l0.038-16.936l4.955,0.006
			l-0.018,7.586l5.98-7.575l5.389,0.009l-6.145,7.919L541.708,210.654z"/>
		<path fill="#5B2757" d="M554.304,210.675l-4.955-0.011l0.041-16.936l4.953,0.006L554.304,210.675z"/>
		<path fill="#5B2757" d="M581.81,210.714l-4.419-0.008l-8.508-9.45l-0.019,9.44l-4.927-0.01l0.037-16.938l4.417,0.007l8.482,9.396
			l0.021-9.381l4.951,0.006L581.81,210.714z"/>
		<path fill="#5B2757" d="M606.945,209.563c-0.357,0.141-0.663,0.253-0.917,0.342c-0.248,0.091-0.491,0.172-0.727,0.245
			c-0.233,0.074-0.572,0.167-1.02,0.28c-0.751,0.177-1.498,0.314-2.249,0.406c-0.743,0.093-1.534,0.139-2.365,0.138
			c-1.665-0.003-3.21-0.318-4.628-0.949c-1.409-0.63-2.542-1.604-3.394-2.929c-0.844-1.321-1.263-2.945-1.261-4.871
			c0.004-1.239,0.224-2.453,0.664-3.649c0.441-1.195,1.114-2.148,2.015-2.867c0.743-0.594,1.499-1.042,2.261-1.355
			c0.765-0.312,1.514-0.519,2.241-0.624c0.729-0.105,1.533-0.157,2.41-0.157c1.448,0.002,2.648,0.117,3.586,0.342
			c0.938,0.227,1.973,0.521,3.096,0.892l-0.006,4.002c-0.746-0.447-1.534-0.825-2.362-1.129c-0.832-0.301-1.869-0.456-3.117-0.456
			c-1.43-0.003-2.578,0.275-3.441,0.833c-0.857,0.558-1.458,1.222-1.798,1.997c-0.337,0.774-0.507,1.522-0.511,2.25
			c-0.001,0.856,0.191,1.646,0.578,2.369c0.388,0.719,0.97,1.3,1.757,1.736c0.779,0.436,1.732,0.658,2.839,0.659
			c0.634-0.001,1.312-0.083,2.023-0.252l0.004-1.975l-2.233-0.005l0.01-3.416l6.565,0.01L606.945,209.563z"/>
	</g>
</g>
</svg>
